<svg class="icon" width="200px" height="200.00px" viewBox="0 0 1024 1024" version="1.1" xmlns="http://www.w3.org/2000/svg"><path d="M1001.951626 1001.951626H22.048374V22.048374h979.903252v979.903252" fill="#FFFFFF" /><path d="M1001.951626 1024H22.048374a22.048374 22.048374 0 0 1-22.048374-22.048374V22.048374a22.048374 22.048374 0 0 1 22.048374-22.048374h979.903252a22.048374 22.048374 0 0 1 22.048374 22.048374v979.903252a22.048374 22.048374 0 0 1-22.048374 22.048374zM44.096749 979.903251h935.806502V44.096749H44.096749z" fill="#888888" /><path d="M22.048374 22.048374h979.903252v256.643078H22.048374z" fill="#04BEBD" /><path d="M1001.951626 300.739826H22.048374a22.048374 22.048374 0 0 1-22.048374-22.048374V22.048374a22.048374 22.048374 0 0 1 22.048374-22.048374h979.903252a22.048374 22.048374 0 0 1 22.048374 22.048374v256.643078a22.048374 22.048374 0 0 1-22.048374 22.048374zM44.096749 256.643078h935.806502V44.096749H44.096749z" fill="#888888" /><path d="M339.544965 374.74887m62.470394 0l0.073495 0q62.470394 0 62.470394 62.470394l0 0.073494q0 62.470394-62.470394 62.470394l-0.073495 0q-62.470394 0-62.470394-62.470394l0-0.073494q0-62.470394 62.470394-62.470394Z" fill="#CCCCCC" /><path d="M555.472045 374.74887m62.470394 0l0.073494 0q62.470394 0 62.470394 62.470394l0 0.073494q0 62.470394-62.470394 62.470394l-0.073494 0q-62.470394 0-62.470394-62.470394l0-0.073494q0-62.470394 62.470394-62.470394Z" fill="#CCCCCC" /><path d="M771.32563 374.74887m62.470394 0l0.073494 0q62.470394 0 62.470394 62.470394l0 0.073494q0 62.470394-62.470394 62.470394l-0.073494 0q-62.470394 0-62.470394-62.470394l0-0.073494q0-62.470394 62.470394-62.470394Z" fill="#CCCCCC" /><path d="M123.69138 576.858968m62.470394 0l0.073495 0q62.470394 0 62.470394 62.470394l0 0.073495q0 62.470394-62.470394 62.470394l-0.073495 0q-62.470394 0-62.470394-62.470394l0-0.073495q0-62.470394 62.470394-62.470394Z" fill="#CCCCCC" /><path d="M339.544965 576.858968m62.470394 0l0.073495 0q62.470394 0 62.470394 62.470394l0 0.073495q0 62.470394-62.470394 62.470394l-0.073495 0q-62.470394 0-62.470394-62.470394l0-0.073495q0-62.470394 62.470394-62.470394Z" fill="#CCCCCC" /><path d="M555.472045 576.858968m62.470394 0l0.073494 0q62.470394 0 62.470394 62.470394l0 0.073495q0 62.470394-62.470394 62.470394l-0.073494 0q-62.470394 0-62.470394-62.470394l0-0.073495q0-62.470394 62.470394-62.470394Z" fill="#CCCCCC" /><path d="M771.32563 576.858968m62.470394 0l0.073494 0q62.470394 0 62.470394 62.470394l0 0.073495q0 62.470394-62.470394 62.470394l-0.073494 0q-62.470394 0-62.470394-62.470394l0-0.073495q0-62.470394 62.470394-62.470394Z" fill="#CCCCCC" /><path d="M123.69138 776.984713m62.470394 0l0.073495 0q62.470394 0 62.470394 62.470394l0 0.073494q0 62.470394-62.470394 62.470394l-0.073495 0q-62.470394 0-62.470394-62.470394l0-0.073494q0-62.470394 62.470394-62.470394Z" fill="#CCCCCC" /><path d="M339.544965 776.984713m62.470394 0l0.073495 0q62.470394 0 62.470394 62.470394l0 0.073494q0 62.470394-62.470394 62.470394l-0.073495 0q-62.470394 0-62.470394-62.470394l0-0.073494q0-62.470394 62.470394-62.470394Z" fill="#CCCCCC" /><path d="M555.472045 776.984713m62.470394 0l0.073494 0q62.470394 0 62.470394 62.470394l0 0.073494q0 62.470394-62.470394 62.470394l-0.073494 0q-62.470394 0-62.470394-62.470394l0-0.073494q0-62.470394 62.470394-62.470394Z" fill="#CCCCCC" /><path d="M256.863561 144.931314m-53.283571 0a53.283571 53.283571 0 1 0 106.567143 0 53.283571 53.283571 0 1 0-106.567143 0Z" fill="#FFFFFF" /><path d="M781.908849 144.931314m-53.283571 0a53.283571 53.283571 0 1 0 106.567143 0 53.283571 53.283571 0 1 0-106.567143 0Z" fill="#FFFFFF" /></svg>