<svg class="icon" width="200px" height="200.00px" viewBox="0 0 1024 1024" version="1.1" xmlns="http://www.w3.org/2000/svg"><path d="M1001.946877 1001.946877H22.053123V22.053123h979.893754v979.893754" fill="#FFFFFF" /><path d="M1001.946877 1024H22.053123c-12.49677 0-22.053123-9.556353-22.053123-22.053123V22.053123c0-12.49677 9.556353-22.053123 22.053123-22.053123h979.893754c12.49677 0 22.053123 9.556353 22.053123 22.053123v979.893754c0 12.49677-9.556353 22.053123-22.053123 22.053123zM44.106246 979.893754h935.787508V44.106246H44.106246v935.787508z" fill="#888888" /><path d="M779.945441 835.813352H244.054559c-30.874372 0-55.867911-24.993539-55.867911-55.867911V244.054559c0-30.874372 24.993539-55.867911 55.867911-55.867911h535.890882c30.874372 0 55.867911 24.993539 55.867911 55.867911v535.890882c0 30.139268-25.728643 55.867911-55.867911 55.867911z" fill="#CCCCCC" /><path d="M838.753769 894.62168H508.692032c-30.874372 0-55.867911-24.993539-55.867911-55.867911V508.692032c0-30.874372 24.993539-55.867911 55.867911-55.867911h330.061737c30.874372 0 55.867911 24.993539 55.867911 55.867911v330.061737c0 30.139268-25.728643 55.867911-55.867911 55.867911z" fill="#FFFFFF" /><path d="M779.945441 835.813352H611.606604c-30.874372 0-55.867911-24.993539-55.867911-55.867911V611.606604c0-30.874372 24.993539-55.867911 55.867911-55.867911h168.338837c30.874372 0 55.867911 24.993539 55.867911 55.867911v168.338837c0 30.139268-25.728643 55.867911-55.867911 55.867911z" fill="#04BEBD" /></svg>