<svg class="icon" width="200px" height="200.00px" viewBox="0 0 1024 1024" version="1.1" xmlns="http://www.w3.org/2000/svg"><path d="M1001.951626 1001.951626H22.048374V22.048374h979.903252v979.903252" fill="#FFFFFF" /><path d="M1001.951626 1024H22.048374a22.048374 22.048374 0 0 1-22.048374-22.048374V22.048374a22.048374 22.048374 0 0 1 22.048374-22.048374h979.903252a22.048374 22.048374 0 0 1 22.048374 22.048374v979.903252a22.048374 22.048374 0 0 1-22.048374 22.048374zM44.096749 979.903251h935.806502V44.096749H44.096749z" fill="#888888" /><path d="M761.036388 22.048374h240.988732v256.643078h-240.988732z" fill="#04BEBD" /><path d="M1001.951626 300.739826H22.048374a22.048374 22.048374 0 0 1-22.048374-22.048374V22.048374a22.048374 22.048374 0 0 1 22.048374-22.048374h979.903252a22.048374 22.048374 0 0 1 22.048374 22.048374v256.643078a22.048374 22.048374 0 0 1-22.048374 22.048374zM44.096749 256.643078h935.806502V44.096749H44.096749z" fill="#888888" /><path d="M876.496376 187.117204l50.711261-52.034164h-101.422523l50.711262 52.034164z" fill="#FFFFFF" /><path d="M400.060403 762.087361l273.612977-273.612976 49.888121 49.888121-273.612976 273.620326z" fill="#04BEBD" /><path d="M341.948238 605.779086l153.66982 153.669819-49.888122 49.888122-153.677169-153.66982z" fill="#04BEBD" /></svg>