<svg class="icon" width="200px" height="200.00px" viewBox="0 0 1024 1024" version="1.1" xmlns="http://www.w3.org/2000/svg"><path d="M1001.951626 1001.951626H22.048374V22.048374h979.903252v979.903252" fill="#FFFFFF" /><path d="M1001.951626 1024H22.048374a22.048374 22.048374 0 0 1-22.048374-22.048374V22.048374a22.048374 22.048374 0 0 1 22.048374-22.048374h979.903252a22.048374 22.048374 0 0 1 22.048374 22.048374v979.903252a22.048374 22.048374 0 0 1-22.048374 22.048374zM44.096749 979.903251h935.806502V44.096749H44.096749z" fill="#888888" /><path d="M22.048374 22.048374h979.903252v256.643078H22.048374z" fill="#04BEBD" /><path d="M1001.951626 300.739826H22.048374a22.048374 22.048374 0 0 1-22.048374-22.048374V22.048374a22.048374 22.048374 0 0 1 22.048374-22.048374h979.903252a22.048374 22.048374 0 0 1 22.048374 22.048374v256.643078a22.048374 22.048374 0 0 1-22.048374 22.048374zM44.096749 256.643078h935.806502V44.096749H44.096749z" fill="#888888" /><path d="M901.190555 546.72619H119.722673a22.048374 22.048374 0 0 1 0-44.096749h781.467882a22.048374 22.048374 0 0 1 0 44.096749zM901.190555 784.334171H119.722673a22.048374 22.048374 0 1 1 0-44.096749h781.467882a22.048374 22.048374 0 0 1 0 44.096749z" fill="#CCCCCC" /><path d="M673.357353 932.352257a22.048374 22.048374 0 0 1-22.048374-22.048374v-540.185172a22.048374 22.048374 0 0 1 44.096748 0v540.185172a22.048374 22.048374 0 0 1-22.048374 22.048374zM347.555875 932.352257a22.048374 22.048374 0 0 1-22.048375-22.048374v-540.185172a22.048374 22.048374 0 0 1 44.096749 0v540.185172a22.048374 22.048374 0 0 1-22.048374 22.048374z" fill="#CCCCCC" /></svg>