<svg class="icon" width="200px" height="199.03px" viewBox="0 0 1029 1024" version="1.1" xmlns="http://www.w3.org/2000/svg"><path d="M485.73696 7.387634L238.546714 141.84258c-55.037876 29.993796-33.761489 113.695693 28.959527 113.695693h494.306615c62.721016 0 84.071279-83.701897 28.959527-113.695693L543.582137 7.387634a60.430849 60.430849 0 0 0-57.845177 0z" fill="#04BEBD" /><path d="M451.236707 159.572902m40.41036 0l46.024962 0q40.41036 0 40.41036 40.41036l0 352.464036q0 40.41036-40.41036 40.41036l-46.024962 0q-40.41036 0-40.41036-40.41036l0-352.464036q0-40.41036 40.41036-40.41036Z" fill="#04BEBD" /><path d="M1007.156194 1001.837097H22.162903v-210.916961h984.993291v210.916961" fill="#FFFFFF" /><path d="M1007.156194 1024H22.162903a22.162903 22.162903 0 0 1-22.162903-22.162903v-210.916961a22.162903 22.162903 0 0 1 22.162903-22.162903h984.993291a22.162903 22.162903 0 0 1 22.162903 22.162903v210.916961a22.162903 22.162903 0 0 1-22.162903 22.162903zM44.325806 979.674194h940.667485v-166.591155H44.325806z" fill="#888888" /></svg>